<?xml version="1.0" encoding="UTF-8" standalone="no"?>
<svg
   xmlns:dc="http://purl.org/dc/elements/1.1/"
   xmlns:cc="http://creativecommons.org/ns#"
   xmlns:rdf="http://www.w3.org/1999/02/22-rdf-syntax-ns#"
   xmlns:svg="http://www.w3.org/2000/svg"
   xmlns="http://www.w3.org/2000/svg"
   xmlns:sodipodi="http://sodipodi.sourceforge.net/DTD/sodipodi-0.dtd"
   xmlns:inkscape="http://www.inkscape.org/namespaces/inkscape"
   inkscape:version="1.0 (4035a4fb49, 2020-05-01)"
   height="120"
   width="300"
   sodipodi:docname="Logo.svg"
   id="svg140"
   stroke-miterlimit="10"
   stroke-linecap="square"
   stroke="none"
   fill="none"
   viewBox="0 0 300 120"
   version="1.1">
  <metadata
     id="metadata146">
    <rdf:RDF>
      <cc:Work
         rdf:about="">
        <dc:format>image/svg+xml</dc:format>
        <dc:type
           rdf:resource="http://purl.org/dc/dcmitype/StillImage" />
        <dc:title></dc:title>
      </cc:Work>
    </rdf:RDF>
  </metadata>
  <defs
     id="defs144" />
  <sodipodi:namedview
     inkscape:current-layer="svg140"
     inkscape:window-maximized="1"
     inkscape:window-y="-8"
     inkscape:window-x="-8"
     inkscape:cy="197.68962"
     inkscape:cx="170.05082"
     inkscape:zoom="0.80277778"
     units="px"
     showgrid="false"
     id="namedview142"
     inkscape:window-height="987"
     inkscape:window-width="1680"
     inkscape:pageshadow="2"
     inkscape:pageopacity="0"
     guidetolerance="10"
     gridtolerance="10"
     objecttolerance="10"
     borderopacity="1"
     bordercolor="#666666"
     pagecolor="#ffffff" />
  <clipPath
     id="p.0">
    <path
       id="path117"
       clip-rule="nonzero"
       d="M 0,0 H 960 V 720 H 0 Z" />
  </clipPath>
  <g
     id="g138"
     clip-path="url(#p.0)">
    <path
       id="path120"
       fill-rule="evenodd"
       d="M 0,0 H 960 V 720 H 0 Z"
       fill-opacity="0"
       fill="#000000" />
    <path
       id="path122"
       fill-rule="evenodd"
       d="M 323.5118,292.99213 H 636.48815 V 427.00788 H 323.5118 Z"
       fill-opacity="0"
       fill="#000000" />
    <path
       id="path124"
       fill-rule="nonzero"
       d="m 363.7462,426.15338 q -2.5625,0 -3.20313,-2.5625 l -1.53125,-5.625 q -3.59375,-11.90625 -5.25,-20.10937 -1.03125,-4.46875 -2.5625,-12.40625 -1.79687,-9.21875 -3.32812,-14.98438 l -1.28125,0.78125 -1.65625,0.76563 0.25,49.28125 v 1.92187 q 0,2.54688 -2.29688,2.54688 -1.03125,0 -1.67187,-0.64063 -0.64063,-0.64062 -0.64063,-1.53125 v -1.92187 l 0.25,-25.85938 0.26563,-12.40625 q 0.51562,-22.40625 0.51562,-38.14062 v -16.51563 q 0,-1.15625 2.29688,-1.15625 3.32812,0 6.20312,1.79688 2.89063,1.78125 4.54688,4.85937 3.45312,6.26563 3.45312,13.70313 0,5.875 -2.54687,12.79687 -0.78125,1.92188 -1.9375,4.42188 -1.14063,2.48437 -2.03125,3.39062 2.6875,9.84375 7.79687,30.32813 l 6.01563,23.04687 q 0.14062,0.375 0.14062,1.40625 0,1.14063 -0.45312,1.96875 -0.45313,0.84375 -1.34375,0.84375 z m -18.95313,-58.375 q 1.03125,0 3.45313,-2.42187 2.4375,-2.4375 3.46875,-4.09375 0.89062,-1.79688 1.53125,-5.375 0.64062,-3.59375 0.64062,-6.40625 0,-5.25 -1.79687,-10.75 -0.89063,-3.20313 -2.6875,-5.1875 -1.78125,-1.98438 -3.96875,-1.98438 h -0.25 q -0.125,0.125 -0.39063,0.125 z"
       fill="#c9daf8" />
    <path
       id="path126"
       fill-rule="nonzero"
       d="m 382.81393,426.38776 q -9.35937,0 -9.35937,-29.4375 v -2.79687 q 0,-22.32813 5.76562,-22.32813 0.39063,0 1.10938,0.25 2.5625,0.875 5.04687,1.10938 1.51563,0.32812 3.04688,3.125 1.67187,2.875 2.51562,7.60937 0.84375,4.71875 0.84375,9.67188 l -0.17187,0.40625 q 0,2.64062 0.0781,4.71875 l 0.0937,4.79687 q 0,4.07813 -0.32812,7.35938 -0.48438,4.95312 -1.59375,8.5625 -0.71875,2.15625 -1.64063,3.59375 -0.92187,1.4375 -2.28125,2.40625 -1.28125,0.95312 -3.125,0.95312 z m -0.3125,-2.3125 q 3.10938,0 4.64063,-4.40625 1.51562,-4.48437 1.82812,-9.10937 0.32813,-4.8125 0.32813,-7.6875 0,-3.20313 -0.48438,-9.4375 -0.39062,-6.96875 -0.39062,-9.4375 l -0.32813,-0.64063 0.15625,-0.40625 q 0,-3.51562 -1.96875,-6.07812 -1.95312,-2.5625 -4.75,-2.5625 -3.67187,0 -4.39062,3.51562 -0.17188,1.20313 -0.32813,3.45313 0,5.90625 -0.48437,8.07812 0,1.20313 -0.23438,3.75 l -0.15625,3.76563 q 0,1.76562 0.0781,3.125 l 0.0781,3.1875 q 0,3.76562 0.64063,8.64062 0.48437,3.60938 1.125,6.09375 0.64062,2.46875 1.82812,4.23438 1.20313,1.92187 2.8125,1.92187 z m 20.96124,1.67188 q -0.64062,0 -1.09375,-0.48438 -0.4375,-0.46875 -0.4375,-1.1875 l -0.0781,-2.48437 q 0,-2.875 0.48437,-8.48438 0.39063,-6.23437 0.39063,-8.39062 l -0.0781,-3.60938 q -0.0781,-1.59375 -0.0781,-3.51562 0,-3.20313 0.25,-9.51563 0.23437,-6.48437 0.23437,-9.60937 l -0.0781,-4.64063 -0.32813,-0.39062 v -0.48438 q 0,-2.07812 1.6875,-2.07812 1.28125,0 4.20313,1 2.92187,1 2.92187,1.64062 v 0.23438 q 1.4375,2.32812 1.95313,4.65625 0.51562,2.3125 0.51562,5.90625 0,5.84375 -1.28125,9.51562 h 0.0781 q -0.3125,0.64063 -1.26563,2.09375 l -1.125,1.67188 q 1.4375,1.125 2.4375,3.28125 1,2.15625 1.23438,4.15625 0.0937,0.71875 0.17187,1.76562 0.0781,1.03125 0.15625,2.48438 l 0.0781,2.07812 v 1.10938 q 0,7.6875 -4.79688,11.35937 -2.48437,1.92188 -6.15625,1.92188 z m 2.46875,-29.75 q 5.28125,0 5.28125,-10.64063 0,-0.89062 -0.15625,-3.4375 l -0.0781,-1.53125 -0.15625,-0.15625 q -0.32813,-2.64062 -0.89063,-4.15625 -0.39062,-1.125 -1.28125,-1.79687 -0.875,-0.6875 -1.92187,-0.6875 -1.75,0 -1.75,10.48437 0,2 0.0781,2.71875 v 1.59375 2.71875 q -0.0781,1.28125 -0.0781,2.89063 v 0.95312 q 0,0 0.15625,0.48438 l 0.15625,0.5625 z m -1.20312,26.64062 q 1.92187,0 3.5625,-1.28125 1.64062,-1.28125 2.59375,-3.3125 0.96875,-2.04687 0.96875,-4.04687 l 0.0781,-0.32813 v -0.64062 -0.875 q 0,-3.35938 -0.5625,-6.40625 -0.875,-4.07813 -3.10937,-5.92188 -1.28125,-1.03125 -3.04688,-1.03125 -0.39062,6.64063 -0.39062,10.875 v 1.84375 q 0,2.3125 0.23437,3.67188 -0.40625,0.73437 -0.40625,3.84375 v 2.07812 z"
       fill="#cfffe5" />
    <path
       id="path128"
       fill-rule="nonzero"
       d="m 430.3214,425.63776 q -1.53125,0 -1.53125,-4.48437 0,-6.39063 -0.14063,-11.39063 l -0.25,-11.51562 v -10.35938 q -0.125,-4.60937 -0.125,-10.375 0,-17.15625 -0.64062,-31.75 l -0.125,-4.60937 q -0.39063,-7.54688 -0.39063,-12.28125 l 0.39063,-0.51563 q 0.125,-0.25 0.5,-0.64062 0.14062,-0.375 0.64062,-0.5 0.26563,-0.14063 0.90625,-0.14063 4.46875,0 8.10938,2.04688 3.65625,2.04687 5.96875,5.64062 4.48437,7.03125 4.48437,16 0,5.75 -1.85937,11.78125 -1.85938,6.01563 -5.57813,10.875 -3.82812,5.25 -8.5625,6.14063 l 0.25,14.20312 0.25,6.92188 q 0.51563,12.28125 0.51563,20.98437 0,2.04688 -0.57813,3.01563 -0.57812,0.95312 -2.23437,0.95312 z m 1.79687,-50.8125 q 1.14063,-0.125 2.29688,-1.03125 0.25,-0.125 0.89062,-1.01562 0,0 0.90625,-0.89063 8.3125,-8.32812 8.3125,-20.875 0,-7.17187 -2.8125,-13.3125 -1.53125,-3.20312 -4.48437,-5.04687 -2.9375,-1.85938 -6.90625,-1.85938 0,7.29688 0.76562,21.89063 0.76563,14.59375 0.76563,21.89062 z"
       fill="#c9daf8" />
    <path
       id="path130"
       fill-rule="nonzero"
       d="m 472.3838,425.82526 q -0.95313,-1.03125 -2.07813,-5.51562 -1.125,-4.48438 -2.07812,-10.07813 -0.64063,-4.5625 -1.84375,-9.04687 -0.95313,-4 -1.84375,-4 h -0.23438 q -1.76562,0 -1.76562,1.125 0,5.76562 0.64062,17.51562 0.32813,7.20313 0.71875,8.40625 l -0.64062,1.35938 h -1.10938 l -0.64062,-0.64063 q -1.28125,-36.95312 -1.28125,-50.39062 0,-0.89063 0.10937,-1.4375 0.125,-0.5625 0.53125,-1.04688 0.3125,-0.5625 1.10938,-0.5625 4.09375,0 6.5625,2 2.48437,2 2.48437,5.76563 v 5.82812 q 0,1.53125 -1,4.09375 -1,2.54688 -2.20312,4.71875 l -1.03125,2 q 0.875,4.07813 3.46875,14.67188 2.60937,10.59375 2.84375,11.23437 0.0781,0.0937 0.20312,0.42188 0.125,0.3125 0.51563,0.9375 0.5625,1.125 0.5625,1.92187 0,1.125 -0.875,1.125 z m -9.4375,-30.64062 q 1.51562,0 2.71875,-1.51563 1.20312,-1.51562 1.92187,-3.92187 1.28125,-4.875 1.28125,-7.75 0,-1.84375 -0.20312,-3.04688 -0.20313,-1.20312 -0.6875,-2.5625 -0.95313,-2.79687 -4.54688,-2.79687 -0.40625,0 -0.65625,0.6875 -0.23437,0.67187 -0.23437,1.39062 0,5.35938 0.15625,9.6875 0.0937,4.3125 0.0937,9.67188 z m 28.71561,31.20312 q -9.35938,0 -9.35938,-29.4375 v -2.79687 q 0,-22.32813 5.76563,-22.32813 0.39062,0 1.10937,0.25 2.5625,0.875 5.04688,1.10938 1.51562,0.32812 3.04687,3.125 1.67188,2.875 2.51563,7.60937 0.84375,4.71875 0.84375,9.67188 l -0.17188,0.40625 q 0,2.64062 0.0781,4.71875 l 0.0937,4.79687 q 0,4.07813 -0.32813,7.35938 -0.48437,4.95312 -1.59375,8.5625 -0.71875,2.15625 -1.64062,3.59375 -0.92188,1.4375 -2.28125,2.40625 -1.28125,0.95312 -3.125,0.95312 z m -0.3125,-2.3125 q 3.10937,0 4.64062,-4.40625 1.51563,-4.48437 1.82813,-9.10937 0.32812,-4.8125 0.32812,-7.6875 0,-3.20313 -0.48437,-9.4375 -0.39063,-6.96875 -0.39063,-9.4375 l -0.32812,-0.64063 0.15625,-0.40625 q 0,-3.51562 -1.96875,-6.07812 -1.95313,-2.5625 -4.75,-2.5625 -3.67188,0 -4.39063,3.51562 -0.17187,1.20313 -0.32812,3.45313 0,5.90625 -0.48438,8.07812 0,1.20313 -0.23437,3.75 l -0.15625,3.76563 q 0,1.76562 0.0781,3.125 l 0.0781,3.1875 q 0,3.76562 0.64062,8.64062 0.48438,3.60938 1.125,6.09375 0.64063,2.46875 1.82813,4.23438 1.20312,1.92187 2.8125,1.92187 z m 19.75808,0.71875 q 0.79688,-7.28125 0.79688,-19.4375 0,-5.35937 0.48437,-16.17187 0.5625,-10 0.5625,-16.07813 0,-0.71875 0.67188,-1.10937 0.6875,-0.40625 1.5625,-0.40625 2.79687,0 6.15625,0.64062 3.35937,0.64063 3.35937,1.6875 0,1.35938 -2.79687,1.35938 -1.76563,-0.8125 -4.48438,-0.8125 l -0.95312,0.0937 q -0.25,0.0781 -0.375,0.23437 -0.10938,0.15625 -0.1875,0.48438 -0.15625,0.64062 -0.32813,0.875 0,3.59375 -0.3125,8.48437 -0.40625,4.71875 -0.40625,8.39063 v 2.79687 q 0,0.32813 1.28125,0.25 4.07813,0 4.07813,1.28125 0,0.64063 -0.59375,1.07813 -0.59375,0.4375 -1.3125,0.4375 -0.48438,0 -1.35938,-0.23438 -0.8125,-0.25 -1.375,-0.25 -1.4375,0 -1.4375,3.92188 v 9.04687 q 0,1.92188 0.25,5.67188 0.23438,3.84375 0.23438,5.76562 0,3.20313 -1.92188,3.20313 z"
       fill="#cfffe5" />
    <path
       id="path132"
       fill-rule="nonzero"
       d="m 545.3206,424.3565 q -3.0625,-0.125 -7.79687,-0.125 -0.90625,0 -1.60938,-0.64063 -0.70312,-0.64062 -0.70312,-1.40625 0,-1.67187 2.1875,-1.67187 h 4.98437 q 0,-14.71875 -0.89062,-37.10938 -0.51563,-17.92187 -1.03125,-28.15625 l 0.125,-6.53125 v -8.45312 q 0,-6.40625 -0.25,-8.1875 h -4.48438 q -1.28125,0 -1.28125,-1.79688 0,-1.15625 1.03125,-1.79687 0.89063,-0.375 4.73438,-0.375 h 3.57812 q 1.92188,0.125 4.875,0.125 1.01563,0 1.65625,0.45312 0.64063,0.4375 0.64063,1.34375 0,0.76563 -0.39063,1.40625 -0.375,0.64063 -1.14062,0.64063 -0.90625,0 -1.54688,-0.125 h -1.53125 -1.28125 q -1.28125,0 -1.53125,0.25 l -0.25,0.51562 q 0,9.98438 1.65625,40.3125 1.53125,28.03125 1.53125,40.32813 v 3.57812 q -0.125,1.67188 -0.125,3.45313 h 4.60938 q 2.95312,0 2.95312,1.79687 0,0.76563 -0.57812,1.46875 -0.57813,0.70313 -1.21875,0.70313 z"
       fill="#c9daf8" />
    <path
       id="path134"
       fill-rule="nonzero"
       d="m 587.74,425.18463 q -0.64063,0 -0.92188,-0.46875 -0.28125,-0.48437 -0.51562,-1.4375 -0.0781,-0.64062 -0.3125,-1.125 l 0.0781,-0.23437 q -0.64062,-3.76563 -2.71875,-9.20313 l -1.45312,-4.15625 q -0.15625,-0.17187 -1.51563,-4.09375 l -0.6406,-1.90625 q -7.20313,-22.25 -9.03125,-24.09375 -0.64063,2.17188 -0.64063,5.60938 0,1.84375 0.0781,3.20312 l 0.0781,3.10938 -0.0781,1.92187 q -0.0781,0.875 -0.0781,1.92188 0,1.76562 0.15625,3.04687 0.15625,2.54688 0.15625,2.54688 h -0.23437 q 0,13.35937 0.5625,14.73437 v 7.1875 q 0.3125,0.64063 0.3125,1.6875 0,0.64063 -0.4375,1.125 -0.4375,0.46875 -1.07813,0.46875 -1.6875,0 -1.6875,-4.3125 l 0.17188,-2.5625 q 0.15625,-1.20312 0.15625,-2.64062 0,-3.84375 -0.25,-11.51563 -0.23438,-7.6875 -0.23438,-11.53125 0,-2.3125 0.23438,-7.10937 0.25,-4.71875 0.25,-7.04688 v -1.03125 q 0,-3.92187 1.4375,-5.125 l 0.23437,0.23438 0.8125,-0.15625 q 0.3125,0.0781 0.71875,0.48437 0.3125,0.3125 0.3125,0.71875 l 0.15625,0.48438 q 0,0.15625 0.0312,0.28125 0.0469,0.10937 0.0469,0.10937 1.28125,5.6875 5.76562,15.92188 4.5625,10.79687 5.6875,14.32812 0.79688,2.79688 1.28125,4.95313 1.51563,6.79687 3.59375,10.48437 l 0.15625,-0.25 q 1.84375,-17.75 1.84375,-43.59375 l -0.0781,-0.96875 q -0.0781,-0.39062 -0.0781,-1.03125 0,-1.6875 1.10938,-1.6875 0.71875,0 1.23437,0.73438 0.53125,0.71875 0.53125,1.59375 v 5.35937 l -0.40625,0.64063 q 0,7.59375 -0.875,24.95312 -0.875,17.35938 -1.67187,18.89063 l -1.35938,0.3125 v 0.0781 l -0.0937,-0.0781 z m 33.92499,1.125 q -1.92188,0 -4.5625,-7.20312 -2.48438,-6.64063 -4.32813,-14.39063 -1.82812,-7.76562 -1.98437,-10.89062 l -0.25,-0.3125 -1.20313,2.5625 q -0.875,1.67187 -1.3125,2.76562 -0.4375,1.07813 -0.84375,2.67188 -0.48437,1.51562 -0.48437,3.125 0,1.59375 -0.15625,2.875 l -0.15625,2.875 v 10.25 q 0,0.71875 0.23437,2.3125 0.25,1.4375 0.25,2.23437 0,0.40625 -0.40625,0.6875 -0.39062,0.28125 -0.875,0.28125 -1.04687,0 -1.40625,-0.32812 -0.35937,-0.3125 -0.35937,-1.35938 v -15.03125 q 0,-1.28125 0.40625,-5.04687 0.39062,-3.75 0.39062,-5.03125 0,-3.35938 0.40625,-7.76563 0.3125,-4.48437 0.3125,-7.67187 v -11.125 q 0.48438,-0.875 1.53125,-0.875 0.64063,0 1.07813,0.4375 0.4375,0.4375 0.4375,1.07812 -0.64063,1.4375 -0.64063,3.84375 l -0.15625,8.39063 q -0.15625,3.84375 -0.15625,8.48437 0.79688,-0.23437 6.23438,-11.04687 5.4375,-10.71875 6,-10.71875 2.07812,0 2.07812,1.35937 -5.125,7.60938 -8.48437,14.8125 l -0.0781,2.54688 q -0.0781,1.125 -0.0781,2.5625 0,3.51562 2.71875,13.20312 2.71875,9.6875 4.64062,13.4375 0.875,1.20313 1.04688,1.35938 0.79687,1.125 1.15625,1.89062 0.35937,0.75 0.35937,1.54688 0,0.5625 -0.40625,0.875 -0.39062,0.32812 -0.95312,0.32812 z"
       fill="#cfffe5" />
    <path
       id="path136"
       fill-rule="evenodd"
       d="m 218.50131,159.4672 h 288 v 33.60629 h -288 z"
       fill-opacity="0"
       fill="#000000" />
  </g>
  <g
     transform="translate(-327.61246,-316.40138)"
     clip-path="url(#p.0)"
     id="g166">
    <path
       fill="#000000"
       fill-opacity="0"
       d="M 0,0 H 960 V 720 H 0 Z"
       fill-rule="evenodd"
       id="path148" />
    <path
       fill="#000000"
       fill-opacity="0"
       d="M 323.5118,292.99213 H 636.48815 V 427.00788 H 323.5118 Z"
       fill-rule="evenodd"
       id="path150" />
    <path
       fill="#c9daf8"
       d="m 363.7462,426.15338 q -2.5625,0 -3.20313,-2.5625 l -1.53125,-5.625 q -3.59375,-11.90625 -5.25,-20.10937 -1.03125,-4.46875 -2.5625,-12.40625 -1.79687,-9.21875 -3.32812,-14.98438 l -1.28125,0.78125 -1.65625,0.76563 0.25,49.28125 v 1.92187 q 0,2.54688 -2.29688,2.54688 -1.03125,0 -1.67187,-0.64063 -0.64063,-0.64062 -0.64063,-1.53125 v -1.92187 l 0.25,-25.85938 0.26563,-12.40625 q 0.51562,-22.40625 0.51562,-38.14062 v -16.51563 q 0,-1.15625 2.29688,-1.15625 3.32812,0 6.20312,1.79688 2.89063,1.78125 4.54688,4.85937 3.45312,6.26563 3.45312,13.70313 0,5.875 -2.54687,12.79687 -0.78125,1.92188 -1.9375,4.42188 -1.14063,2.48437 -2.03125,3.39062 2.6875,9.84375 7.79687,30.32813 l 6.01563,23.04687 q 0.14062,0.375 0.14062,1.40625 0,1.14063 -0.45312,1.96875 -0.45313,0.84375 -1.34375,0.84375 z m -18.95313,-58.375 q 1.03125,0 3.45313,-2.42187 2.4375,-2.4375 3.46875,-4.09375 0.89062,-1.79688 1.53125,-5.375 0.64062,-3.59375 0.64062,-6.40625 0,-5.25 -1.79687,-10.75 -0.89063,-3.20313 -2.6875,-5.1875 -1.78125,-1.98438 -3.96875,-1.98438 h -0.25 q -0.125,0.125 -0.39063,0.125 z"
       fill-rule="nonzero"
       id="path152" />
    <path
       fill="#cfffe5"
       d="m 382.81393,426.38776 q -9.35937,0 -9.35937,-29.4375 v -2.79687 q 0,-22.32813 5.76562,-22.32813 0.39063,0 1.10938,0.25 2.5625,0.875 5.04687,1.10938 1.51563,0.32812 3.04688,3.125 1.67187,2.875 2.51562,7.60937 0.84375,4.71875 0.84375,9.67188 l -0.17187,0.40625 q 0,2.64062 0.0781,4.71875 l 0.0937,4.79687 q 0,4.07813 -0.32812,7.35938 -0.48438,4.95312 -1.59375,8.5625 -0.71875,2.15625 -1.64063,3.59375 -0.92187,1.4375 -2.28125,2.40625 -1.28125,0.95312 -3.125,0.95312 z m -0.3125,-2.3125 q 3.10938,0 4.64063,-4.40625 1.51562,-4.48437 1.82812,-9.10937 0.32813,-4.8125 0.32813,-7.6875 0,-3.20313 -0.48438,-9.4375 -0.39062,-6.96875 -0.39062,-9.4375 l -0.32813,-0.64063 0.15625,-0.40625 q 0,-3.51562 -1.96875,-6.07812 -1.95312,-2.5625 -4.75,-2.5625 -3.67187,0 -4.39062,3.51562 -0.17188,1.20313 -0.32813,3.45313 0,5.90625 -0.48437,8.07812 0,1.20313 -0.23438,3.75 l -0.15625,3.76563 q 0,1.76562 0.0781,3.125 l 0.0781,3.1875 q 0,3.76562 0.64063,8.64062 0.48437,3.60938 1.125,6.09375 0.64062,2.46875 1.82812,4.23438 1.20313,1.92187 2.8125,1.92187 z m 20.96124,1.67188 q -0.64062,0 -1.09375,-0.48438 -0.4375,-0.46875 -0.4375,-1.1875 l -0.0781,-2.48437 q 0,-2.875 0.48437,-8.48438 0.39063,-6.23437 0.39063,-8.39062 l -0.0781,-3.60938 q -0.0781,-1.59375 -0.0781,-3.51562 0,-3.20313 0.25,-9.51563 0.23437,-6.48437 0.23437,-9.60937 l -0.0781,-4.64063 -0.32813,-0.39062 v -0.48438 q 0,-2.07812 1.6875,-2.07812 1.28125,0 4.20313,1 2.92187,1 2.92187,1.64062 v 0.23438 q 1.4375,2.32812 1.95313,4.65625 0.51562,2.3125 0.51562,5.90625 0,5.84375 -1.28125,9.51562 h 0.0781 q -0.3125,0.64063 -1.26563,2.09375 l -1.125,1.67188 q 1.4375,1.125 2.4375,3.28125 1,2.15625 1.23438,4.15625 0.0937,0.71875 0.17187,1.76562 0.0781,1.03125 0.15625,2.48438 l 0.0781,2.07812 v 1.10938 q 0,7.6875 -4.79688,11.35937 -2.48437,1.92188 -6.15625,1.92188 z m 2.46875,-29.75 q 5.28125,0 5.28125,-10.64063 0,-0.89062 -0.15625,-3.4375 l -0.0781,-1.53125 -0.15625,-0.15625 q -0.32813,-2.64062 -0.89063,-4.15625 -0.39062,-1.125 -1.28125,-1.79687 -0.875,-0.6875 -1.92187,-0.6875 -1.75,0 -1.75,10.48437 0,2 0.0781,2.71875 v 1.59375 2.71875 q -0.0781,1.28125 -0.0781,2.89063 v 0.95312 q 0,0 0.15625,0.48438 l 0.15625,0.5625 z m -1.20312,26.64062 q 1.92187,0 3.5625,-1.28125 1.64062,-1.28125 2.59375,-3.3125 0.96875,-2.04687 0.96875,-4.04687 l 0.0781,-0.32813 v -0.64062 -0.875 q 0,-3.35938 -0.5625,-6.40625 -0.875,-4.07813 -3.10937,-5.92188 -1.28125,-1.03125 -3.04688,-1.03125 -0.39062,6.64063 -0.39062,10.875 v 1.84375 q 0,2.3125 0.23437,3.67188 -0.40625,0.73437 -0.40625,3.84375 v 2.07812 z"
       fill-rule="nonzero"
       id="path154" />
    <path
       fill="#c9daf8"
       d="m 430.3214,425.63776 q -1.53125,0 -1.53125,-4.48437 0,-6.39063 -0.14063,-11.39063 l -0.25,-11.51562 v -10.35938 q -0.125,-4.60937 -0.125,-10.375 0,-17.15625 -0.64062,-31.75 l -0.125,-4.60937 q -0.39063,-7.54688 -0.39063,-12.28125 l 0.39063,-0.51563 q 0.125,-0.25 0.5,-0.64062 0.14062,-0.375 0.64062,-0.5 0.26563,-0.14063 0.90625,-0.14063 4.46875,0 8.10938,2.04688 3.65625,2.04687 5.96875,5.64062 4.48437,7.03125 4.48437,16 0,5.75 -1.85937,11.78125 -1.85938,6.01563 -5.57813,10.875 -3.82812,5.25 -8.5625,6.14063 l 0.25,14.20312 0.25,6.92188 q 0.51563,12.28125 0.51563,20.98437 0,2.04688 -0.57813,3.01563 -0.57812,0.95312 -2.23437,0.95312 z m 1.79687,-50.8125 q 1.14063,-0.125 2.29688,-1.03125 0.25,-0.125 0.89062,-1.01562 0,0 0.90625,-0.89063 8.3125,-8.32812 8.3125,-20.875 0,-7.17187 -2.8125,-13.3125 -1.53125,-3.20312 -4.48437,-5.04687 -2.9375,-1.85938 -6.90625,-1.85938 0,7.29688 0.76562,21.89063 0.76563,14.59375 0.76563,21.89062 z"
       fill-rule="nonzero"
       id="path156" />
    <path
       fill="#cfffe5"
       d="m 472.3838,425.82526 q -0.95313,-1.03125 -2.07813,-5.51562 -1.125,-4.48438 -2.07812,-10.07813 -0.64063,-4.5625 -1.84375,-9.04687 -0.95313,-4 -1.84375,-4 h -0.23438 q -1.76562,0 -1.76562,1.125 0,5.76562 0.64062,17.51562 0.32813,7.20313 0.71875,8.40625 l -0.64062,1.35938 h -1.10938 l -0.64062,-0.64063 q -1.28125,-36.95312 -1.28125,-50.39062 0,-0.89063 0.10937,-1.4375 0.125,-0.5625 0.53125,-1.04688 0.3125,-0.5625 1.10938,-0.5625 4.09375,0 6.5625,2 2.48437,2 2.48437,5.76563 v 5.82812 q 0,1.53125 -1,4.09375 -1,2.54688 -2.20312,4.71875 l -1.03125,2 q 0.875,4.07813 3.46875,14.67188 2.60937,10.59375 2.84375,11.23437 0.0781,0.0937 0.20312,0.42188 0.125,0.3125 0.51563,0.9375 0.5625,1.125 0.5625,1.92187 0,1.125 -0.875,1.125 z m -9.4375,-30.64062 q 1.51562,0 2.71875,-1.51563 1.20312,-1.51562 1.92187,-3.92187 1.28125,-4.875 1.28125,-7.75 0,-1.84375 -0.20312,-3.04688 -0.20313,-1.20312 -0.6875,-2.5625 -0.95313,-2.79687 -4.54688,-2.79687 -0.40625,0 -0.65625,0.6875 -0.23437,0.67187 -0.23437,1.39062 0,5.35938 0.15625,9.6875 0.0937,4.3125 0.0937,9.67188 z m 28.71561,31.20312 q -9.35938,0 -9.35938,-29.4375 v -2.79687 q 0,-22.32813 5.76563,-22.32813 0.39062,0 1.10937,0.25 2.5625,0.875 5.04688,1.10938 1.51562,0.32812 3.04687,3.125 1.67188,2.875 2.51563,7.60937 0.84375,4.71875 0.84375,9.67188 l -0.17188,0.40625 q 0,2.64062 0.0781,4.71875 l 0.0937,4.79687 q 0,4.07813 -0.32813,7.35938 -0.48437,4.95312 -1.59375,8.5625 -0.71875,2.15625 -1.64062,3.59375 -0.92188,1.4375 -2.28125,2.40625 -1.28125,0.95312 -3.125,0.95312 z m -0.3125,-2.3125 q 3.10937,0 4.64062,-4.40625 1.51563,-4.48437 1.82813,-9.10937 0.32812,-4.8125 0.32812,-7.6875 0,-3.20313 -0.48437,-9.4375 -0.39063,-6.96875 -0.39063,-9.4375 l -0.32812,-0.64063 0.15625,-0.40625 q 0,-3.51562 -1.96875,-6.07812 -1.95313,-2.5625 -4.75,-2.5625 -3.67188,0 -4.39063,3.51562 -0.17187,1.20313 -0.32812,3.45313 0,5.90625 -0.48438,8.07812 0,1.20313 -0.23437,3.75 l -0.15625,3.76563 q 0,1.76562 0.0781,3.125 l 0.0781,3.1875 q 0,3.76562 0.64062,8.64062 0.48438,3.60938 1.125,6.09375 0.64063,2.46875 1.82813,4.23438 1.20312,1.92187 2.8125,1.92187 z m 19.75808,0.71875 q 0.79688,-7.28125 0.79688,-19.4375 0,-5.35937 0.48437,-16.17187 0.5625,-10 0.5625,-16.07813 0,-0.71875 0.67188,-1.10937 0.6875,-0.40625 1.5625,-0.40625 2.79687,0 6.15625,0.64062 3.35937,0.64063 3.35937,1.6875 0,1.35938 -2.79687,1.35938 -1.76563,-0.8125 -4.48438,-0.8125 l -0.95312,0.0937 q -0.25,0.0781 -0.375,0.23437 -0.10938,0.15625 -0.1875,0.48438 -0.15625,0.64062 -0.32813,0.875 0,3.59375 -0.3125,8.48437 -0.40625,4.71875 -0.40625,8.39063 v 2.79687 q 0,0.32813 1.28125,0.25 4.07813,0 4.07813,1.28125 0,0.64063 -0.59375,1.07813 -0.59375,0.4375 -1.3125,0.4375 -0.48438,0 -1.35938,-0.23438 -0.8125,-0.25 -1.375,-0.25 -1.4375,0 -1.4375,3.92188 v 9.04687 q 0,1.92188 0.25,5.67188 0.23438,3.84375 0.23438,5.76562 0,3.20313 -1.92188,3.20313 z"
       fill-rule="nonzero"
       id="path158" />
    <path
       fill="#c9daf8"
       d="m 545.3206,424.3565 q -3.0625,-0.125 -7.79687,-0.125 -0.90625,0 -1.60938,-0.64063 -0.70312,-0.64062 -0.70312,-1.40625 0,-1.67187 2.1875,-1.67187 h 4.98437 q 0,-14.71875 -0.89062,-37.10938 -0.51563,-17.92187 -1.03125,-28.15625 l 0.125,-6.53125 v -8.45312 q 0,-6.40625 -0.25,-8.1875 h -4.48438 q -1.28125,0 -1.28125,-1.79688 0,-1.15625 1.03125,-1.79687 0.89063,-0.375 4.73438,-0.375 h 3.57812 q 1.92188,0.125 4.875,0.125 1.01563,0 1.65625,0.45312 0.64063,0.4375 0.64063,1.34375 0,0.76563 -0.39063,1.40625 -0.375,0.64063 -1.14062,0.64063 -0.90625,0 -1.54688,-0.125 h -1.53125 -1.28125 q -1.28125,0 -1.53125,0.25 l -0.25,0.51562 q 0,9.98438 1.65625,40.3125 1.53125,28.03125 1.53125,40.32813 v 3.57812 q -0.125,1.67188 -0.125,3.45313 h 4.60938 q 2.95312,0 2.95312,1.79687 0,0.76563 -0.57812,1.46875 -0.57813,0.70313 -1.21875,0.70313 z"
       fill-rule="nonzero"
       id="path160" />
    <path
       fill="#cfffe5"
       d="m 587.74,425.18463 q -0.64063,0 -0.92188,-0.46875 -0.28125,-0.48437 -0.51562,-1.4375 -0.0781,-0.64062 -0.3125,-1.125 l 0.0781,-0.23437 q -0.64062,-3.76563 -2.71875,-9.20313 l -1.45312,-4.15625 q -0.15625,-0.17187 -1.51563,-4.09375 l -0.6406,-1.90625 q -7.20313,-22.25 -9.03125,-24.09375 -0.64063,2.17188 -0.64063,5.60938 0,1.84375 0.0781,3.20312 l 0.0781,3.10938 -0.0781,1.92187 q -0.0781,0.875 -0.0781,1.92188 0,1.76562 0.15625,3.04687 0.15625,2.54688 0.15625,2.54688 h -0.23437 q 0,13.35937 0.5625,14.73437 v 7.1875 q 0.3125,0.64063 0.3125,1.6875 0,0.64063 -0.4375,1.125 -0.4375,0.46875 -1.07813,0.46875 -1.6875,0 -1.6875,-4.3125 l 0.17188,-2.5625 q 0.15625,-1.20312 0.15625,-2.64062 0,-3.84375 -0.25,-11.51563 -0.23438,-7.6875 -0.23438,-11.53125 0,-2.3125 0.23438,-7.10937 0.25,-4.71875 0.25,-7.04688 v -1.03125 q 0,-3.92187 1.4375,-5.125 l 0.23437,0.23438 0.8125,-0.15625 q 0.3125,0.0781 0.71875,0.48437 0.3125,0.3125 0.3125,0.71875 l 0.15625,0.48438 q 0,0.15625 0.0312,0.28125 0.0469,0.10937 0.0469,0.10937 1.28125,5.6875 5.76562,15.92188 4.5625,10.79687 5.6875,14.32812 0.79688,2.79688 1.28125,4.95313 1.51563,6.79687 3.59375,10.48437 l 0.15625,-0.25 q 1.84375,-17.75 1.84375,-43.59375 l -0.0781,-0.96875 q -0.0781,-0.39062 -0.0781,-1.03125 0,-1.6875 1.10938,-1.6875 0.71875,0 1.23437,0.73438 0.53125,0.71875 0.53125,1.59375 v 5.35937 l -0.40625,0.64063 q 0,7.59375 -0.875,24.95312 -0.875,17.35938 -1.67187,18.89063 l -1.35938,0.3125 v 0.0781 l -0.0937,-0.0781 z m 33.92499,1.125 q -1.92188,0 -4.5625,-7.20312 -2.48438,-6.64063 -4.32813,-14.39063 -1.82812,-7.76562 -1.98437,-10.89062 l -0.25,-0.3125 -1.20313,2.5625 q -0.875,1.67187 -1.3125,2.76562 -0.4375,1.07813 -0.84375,2.67188 -0.48437,1.51562 -0.48437,3.125 0,1.59375 -0.15625,2.875 l -0.15625,2.875 v 10.25 q 0,0.71875 0.23437,2.3125 0.25,1.4375 0.25,2.23437 0,0.40625 -0.40625,0.6875 -0.39062,0.28125 -0.875,0.28125 -1.04687,0 -1.40625,-0.32812 -0.35937,-0.3125 -0.35937,-1.35938 v -15.03125 q 0,-1.28125 0.40625,-5.04687 0.39062,-3.75 0.39062,-5.03125 0,-3.35938 0.40625,-7.76563 0.3125,-4.48437 0.3125,-7.67187 v -11.125 q 0.48438,-0.875 1.53125,-0.875 0.64063,0 1.07813,0.4375 0.4375,0.4375 0.4375,1.07812 -0.64063,1.4375 -0.64063,3.84375 l -0.15625,8.39063 q -0.15625,3.84375 -0.15625,8.48437 0.79688,-0.23437 6.23438,-11.04687 5.4375,-10.71875 6,-10.71875 2.07812,0 2.07812,1.35937 -5.125,7.60938 -8.48437,14.8125 l -0.0781,2.54688 q -0.0781,1.125 -0.0781,2.5625 0,3.51562 2.71875,13.20312 2.71875,9.6875 4.64062,13.4375 0.875,1.20313 1.04688,1.35938 0.79687,1.125 1.15625,1.89062 0.35937,0.75 0.35937,1.54688 0,0.5625 -0.40625,0.875 -0.39062,0.32812 -0.95312,0.32812 z"
       fill-rule="nonzero"
       id="path162" />
    <path
       fill="#000000"
       fill-opacity="0"
       d="m 218.50131,159.4672 h 288 v 33.60629 h -288 z"
       fill-rule="evenodd"
       id="path164" />
  </g>
</svg>
